<svg width="282" height="33" viewBox="0 0 282 33" fill="none" xmlns="http://www.w3.org/2000/svg">
<path d="M7.525 25.83C6.03166 25.83 4.71333 25.4683 3.57 24.745C2.45 24.0217 1.575 22.9833 0.944998 21.63C0.314998 20.2767 -2.37674e-06 18.6783 -2.37674e-06 16.835C-2.37674e-06 14.9917 0.314998 13.405 0.944998 12.075C1.575 10.745 2.45 9.71834 3.57 8.995C4.71333 8.27167 6.03166 7.91 7.525 7.91C8.87833 7.91 10.0683 8.23667 11.095 8.89C12.145 9.54334 12.8567 10.395 13.23 11.445H12.845V0.770002H18.13V25.445H12.95V22.05H13.265C12.9383 23.1933 12.2383 24.115 11.165 24.815C10.115 25.4917 8.90167 25.83 7.525 25.83ZM9.1 21.875C10.2433 21.875 11.165 21.4667 11.865 20.65C12.565 19.81 12.915 18.5383 12.915 16.835C12.915 15.1317 12.565 13.8833 11.865 13.09C11.165 12.2733 10.2433 11.865 9.1 11.865C7.98 11.865 7.07 12.2733 6.37 13.09C5.67 13.8833 5.32 15.1317 5.32 16.835C5.32 18.5383 5.67 19.81 6.37 20.65C7.07 21.4667 7.98 21.875 9.1 21.875ZM20.2423 4.935V1.49012e-06H25.9473V4.935H20.2423ZM20.4523 25.445V8.26H25.7373V25.445H20.4523ZM36.3275 32.13C34.6942 32.13 33.1542 31.955 31.7075 31.605C30.2609 31.255 29.0009 30.7067 27.9275 29.96L29.3625 26.355C29.9925 26.7283 30.6692 27.055 31.3925 27.335C32.1392 27.615 32.8975 27.825 33.6675 27.965C34.4375 28.105 35.1725 28.175 35.8725 28.175C37.3659 28.175 38.4859 27.8367 39.2325 27.16C39.9792 26.4833 40.3525 25.445 40.3525 24.045V21.385H40.6675C40.3175 22.4583 39.5942 23.3333 38.4975 24.01C37.4009 24.6867 36.1875 25.025 34.8575 25.025C33.3175 25.025 31.9759 24.675 30.8325 23.975C29.6892 23.2517 28.8025 22.2483 28.1725 20.965C27.5425 19.6583 27.2275 18.1533 27.2275 16.45C27.2275 14.7233 27.5425 13.23 28.1725 11.97C28.8025 10.6867 29.6892 9.695 30.8325 8.995C31.9759 8.27167 33.3175 7.91 34.8575 7.91C36.2342 7.91 37.4475 8.24834 38.4975 8.925C39.5709 9.57834 40.2825 10.4417 40.6325 11.515H40.3525V8.26H45.4975V23.45C45.4975 25.3633 45.1475 26.9617 44.4475 28.245C43.7475 29.5517 42.7092 30.52 41.3325 31.15C39.9792 31.8033 38.3109 32.13 36.3275 32.13ZM36.4325 21.07C37.5992 21.07 38.5325 20.6617 39.2325 19.845C39.9559 19.0283 40.3175 17.8967 40.3175 16.45C40.3175 15.0033 39.9559 13.8833 39.2325 13.09C38.5325 12.2733 37.5992 11.865 36.4325 11.865C35.2425 11.865 34.2975 12.2733 33.5975 13.09C32.8975 13.8833 32.5475 15.0033 32.5475 16.45C32.5475 17.8967 32.8975 19.0283 33.5975 19.845C34.2975 20.6617 35.2425 21.07 36.4325 21.07ZM47.6407 4.935V1.49012e-06H53.3457V4.935H47.6407ZM47.8507 25.445V8.26H53.1357V25.445H47.8507ZM55.466 25.445V8.26H60.646V12.46H60.296C60.576 11.06 61.1826 9.98667 62.116 9.24C63.0726 8.47 64.3326 8.02667 65.896 7.91L67.436 7.805L67.751 12.25L64.776 12.565C63.446 12.6817 62.4543 13.0667 61.801 13.72C61.171 14.3733 60.856 15.3183 60.856 16.555V25.445H55.466ZM76.0922 25.83C74.2489 25.83 72.6389 25.4683 71.2622 24.745C69.9089 24.0217 68.8589 22.9833 68.1122 21.63C67.3655 20.2767 66.9922 18.6783 66.9922 16.835C66.9922 14.9917 67.3655 13.405 68.1122 12.075C68.8589 10.745 69.9089 9.71834 71.2622 8.995C72.6389 8.27167 74.2489 7.91 76.0922 7.91C77.9355 7.91 79.5339 8.27167 80.8872 8.995C82.2639 9.71834 83.3255 10.7567 84.0722 12.11C84.8422 13.44 85.2272 15.015 85.2272 16.835C85.2272 18.6783 84.8422 20.2767 84.0722 21.63C83.3255 22.9833 82.2639 24.0217 80.8872 24.745C79.5339 25.4683 77.9355 25.83 76.0922 25.83ZM76.0922 21.875C77.2355 21.875 78.1572 21.4667 78.8572 20.65C79.5572 19.81 79.9072 18.5383 79.9072 16.835C79.9072 15.1317 79.5572 13.8833 78.8572 13.09C78.1572 12.2733 77.2355 11.865 76.0922 11.865C74.9722 11.865 74.0622 12.2733 73.3622 13.09C72.6622 13.8833 72.3122 15.1317 72.3122 16.835C72.3122 18.5383 72.6622 19.81 73.3622 20.65C74.0622 21.4667 74.9722 21.875 76.0922 21.875ZM93.0975 25.83C90.8809 25.83 89.2592 25.2583 88.2325 24.115C87.2059 22.9483 86.6925 21.2217 86.6925 18.935V0.770002H91.9775V18.725C91.9775 19.3083 92.0709 19.8217 92.2575 20.265C92.4442 20.685 92.7125 21 93.0625 21.21C93.4359 21.42 93.9025 21.525 94.4625 21.525C94.6959 21.525 94.9409 21.5133 95.1975 21.49C95.4542 21.4667 95.6992 21.42 95.9325 21.35L95.8625 25.445C95.4192 25.5617 94.9642 25.655 94.4975 25.725C94.0542 25.795 93.5875 25.83 93.0975 25.83ZM102.408 25.83C101.148 25.83 100.016 25.585 99.0128 25.095C98.0095 24.605 97.2278 23.94 96.6678 23.1C96.1078 22.26 95.8278 21.315 95.8278 20.265C95.8278 19.005 96.1545 18.0133 96.8078 17.29C97.4611 16.5433 98.5228 16.0183 99.9928 15.715C101.463 15.3883 103.411 15.225 105.838 15.225H107.693V17.955H105.873C104.963 17.955 104.193 17.99 103.563 18.06C102.956 18.13 102.454 18.2583 102.058 18.445C101.661 18.6083 101.369 18.8183 101.183 19.075C101.019 19.3317 100.938 19.6583 100.938 20.055C100.938 20.7083 101.159 21.245 101.603 21.665C102.069 22.085 102.734 22.295 103.598 22.295C104.274 22.295 104.869 22.1433 105.383 21.84C105.919 21.5133 106.339 21.0817 106.643 20.545C106.946 19.985 107.098 19.355 107.098 18.655V14.63C107.098 13.6033 106.864 12.88 106.398 12.46C105.931 12.0167 105.138 11.795 104.018 11.795C103.084 11.795 102.093 11.9467 101.043 12.25C100.016 12.53 98.9895 12.9617 97.9628 13.545L96.5278 10.01C97.1345 9.59 97.8695 9.22834 98.7328 8.925C99.6195 8.59834 100.541 8.35334 101.498 8.19C102.454 8.00334 103.364 7.91 104.228 7.91C106.024 7.91 107.494 8.17834 108.638 8.715C109.804 9.22834 110.679 10.0333 111.263 11.13C111.846 12.2033 112.138 13.5917 112.138 15.295V25.445H107.203V21.98H107.448C107.308 22.7733 107.004 23.4617 106.538 24.045C106.094 24.605 105.523 25.0483 104.823 25.375C104.123 25.6783 103.318 25.83 102.408 25.83ZM114.4 25.445V8.26H119.58V11.48H119.195C119.499 10.7567 119.919 10.1267 120.455 9.59C120.992 9.05334 121.634 8.645 122.38 8.365C123.127 8.06167 123.944 7.91 124.83 7.91C126.16 7.91 127.269 8.225 128.155 8.855C129.042 9.485 129.672 10.4533 130.045 11.76H129.555C130.069 10.57 130.85 9.63667 131.9 8.96C132.974 8.26 134.199 7.91 135.575 7.91C136.905 7.91 137.99 8.17834 138.83 8.715C139.694 9.22834 140.335 10.0217 140.755 11.095C141.175 12.145 141.385 13.4867 141.385 15.12V25.445H136.1V15.295C136.1 14.1517 135.914 13.3233 135.54 12.81C135.19 12.2733 134.584 12.005 133.72 12.005C133.067 12.005 132.495 12.1683 132.005 12.495C131.515 12.7983 131.142 13.2533 130.885 13.86C130.652 14.4433 130.535 15.1667 130.535 16.03V25.445H125.25V15.295C125.25 14.1517 125.064 13.3233 124.69 12.81C124.34 12.2733 123.734 12.005 122.87 12.005C122.194 12.005 121.622 12.1683 121.155 12.495C120.689 12.7983 120.327 13.2533 120.07 13.86C119.814 14.4433 119.685 15.1667 119.685 16.03V25.445H114.4ZM151.944 25.83C150.1 25.83 148.49 25.4683 147.114 24.745C145.76 24.0217 144.71 22.9833 143.964 21.63C143.217 20.2767 142.844 18.6783 142.844 16.835C142.844 14.9917 143.217 13.405 143.964 12.075C144.71 10.745 145.76 9.71834 147.114 8.995C148.49 8.27167 150.1 7.91 151.944 7.91C153.787 7.91 155.385 8.27167 156.739 8.995C158.115 9.71834 159.177 10.7567 159.924 12.11C160.694 13.44 161.079 15.015 161.079 16.835C161.079 18.6783 160.694 20.2767 159.924 21.63C159.177 22.9833 158.115 24.0217 156.739 24.745C155.385 25.4683 153.787 25.83 151.944 25.83ZM151.944 21.875C153.087 21.875 154.009 21.4667 154.709 20.65C155.409 19.81 155.759 18.5383 155.759 16.835C155.759 15.1317 155.409 13.8833 154.709 13.09C154.009 12.2733 153.087 11.865 151.944 11.865C150.824 11.865 149.914 12.2733 149.214 13.09C148.514 13.8833 148.164 15.1317 148.164 16.835C148.164 18.5383 148.514 19.81 149.214 20.65C149.914 21.4667 150.824 21.875 151.944 21.875ZM162.334 4.935V1.49012e-06H168.039V4.935H162.334ZM162.544 25.445V8.26H167.829V25.445H162.544ZM170.229 25.445V8.26H175.409V11.48H175.024C175.328 10.7567 175.748 10.1267 176.284 9.59C176.821 9.05334 177.463 8.645 178.209 8.365C178.956 8.06167 179.773 7.91 180.659 7.91C181.989 7.91 183.098 8.225 183.984 8.855C184.871 9.485 185.501 10.4533 185.874 11.76H185.384C185.898 10.57 186.679 9.63667 187.729 8.96C188.803 8.26 190.028 7.91 191.404 7.91C192.734 7.91 193.819 8.17834 194.659 8.715C195.523 9.22834 196.164 10.0217 196.584 11.095C197.004 12.145 197.214 13.4867 197.214 15.12V25.445H191.929V15.295C191.929 14.1517 191.743 13.3233 191.369 12.81C191.019 12.2733 190.413 12.005 189.549 12.005C188.896 12.005 188.324 12.1683 187.834 12.495C187.344 12.7983 186.971 13.2533 186.714 13.86C186.481 14.4433 186.364 15.1667 186.364 16.03V25.445H181.079V15.295C181.079 14.1517 180.893 13.3233 180.519 12.81C180.169 12.2733 179.563 12.005 178.699 12.005C178.023 12.005 177.451 12.1683 176.984 12.495C176.518 12.7983 176.156 13.2533 175.899 13.86C175.643 14.4433 175.514 15.1667 175.514 16.03V25.445H170.229ZM199.513 31.745V8.26H204.693V11.655H204.343C204.693 10.535 205.393 9.63667 206.443 8.96C207.516 8.26 208.741 7.91 210.118 7.91C211.611 7.91 212.918 8.27167 214.038 8.995C215.181 9.71834 216.068 10.745 216.698 12.075C217.328 13.405 217.643 14.9917 217.643 16.835C217.643 18.6783 217.328 20.2767 216.698 21.63C216.068 22.9833 215.193 24.0217 214.073 24.745C212.953 25.4683 211.635 25.83 210.118 25.83C208.765 25.83 207.563 25.5033 206.513 24.85C205.463 24.1733 204.751 23.2983 204.378 22.225H204.798V31.745H199.513ZM208.543 21.875C209.663 21.875 210.573 21.4667 211.273 20.65C211.973 19.81 212.323 18.5383 212.323 16.835C212.323 15.1317 211.973 13.8833 211.273 13.09C210.573 12.2733 209.663 11.865 208.543 11.865C207.4 11.865 206.478 12.2733 205.778 13.09C205.078 13.8833 204.728 15.1317 204.728 16.835C204.728 18.5383 205.078 19.81 205.778 20.65C206.478 21.4667 207.4 21.875 208.543 21.875ZM218.915 4.935V1.49012e-06H224.62V4.935H218.915ZM219.125 25.445V8.26H224.41V25.445H219.125ZM232.55 25.83C231.29 25.83 230.159 25.585 229.155 25.095C228.152 24.605 227.37 23.94 226.81 23.1C226.25 22.26 225.97 21.315 225.97 20.265C225.97 19.005 226.297 18.0133 226.95 17.29C227.604 16.5433 228.665 16.0183 230.135 15.715C231.605 15.3883 233.554 15.225 235.98 15.225H237.835V17.955H236.015C235.105 17.955 234.335 17.99 233.705 18.06C233.099 18.13 232.597 18.2583 232.2 18.445C231.804 18.6083 231.512 18.8183 231.325 19.075C231.162 19.3317 231.08 19.6583 231.08 20.055C231.08 20.7083 231.302 21.245 231.745 21.665C232.212 22.085 232.877 22.295 233.74 22.295C234.417 22.295 235.012 22.1433 235.525 21.84C236.062 21.5133 236.482 21.0817 236.785 20.545C237.089 19.985 237.24 19.355 237.24 18.655V14.63C237.24 13.6033 237.007 12.88 236.54 12.46C236.074 12.0167 235.28 11.795 234.16 11.795C233.227 11.795 232.235 11.9467 231.185 12.25C230.159 12.53 229.132 12.9617 228.105 13.545L226.67 10.01C227.277 9.59 228.012 9.22834 228.875 8.925C229.762 8.59834 230.684 8.35334 231.64 8.19C232.597 8.00334 233.507 7.91 234.37 7.91C236.167 7.91 237.637 8.17834 238.78 8.715C239.947 9.22834 240.822 10.0333 241.405 11.13C241.989 12.2033 242.28 13.5917 242.28 15.295V25.445H237.345V21.98H237.59C237.45 22.7733 237.147 23.4617 236.68 24.045C236.237 24.605 235.665 25.0483 234.965 25.375C234.265 25.6783 233.46 25.83 232.55 25.83ZM244.473 25.445V8.26H249.653V11.48H249.268C249.804 10.3367 250.598 9.46167 251.648 8.855C252.721 8.225 253.934 7.91 255.288 7.91C256.664 7.91 257.796 8.17834 258.683 8.715C259.569 9.22834 260.234 10.0217 260.678 11.095C261.121 12.145 261.343 13.4867 261.343 15.12V25.445H256.058V15.365C256.058 14.5717 255.953 13.93 255.743 13.44C255.556 12.9267 255.264 12.565 254.868 12.355C254.494 12.1217 254.016 12.005 253.433 12.005C252.686 12.005 252.033 12.1683 251.473 12.495C250.936 12.7983 250.516 13.2417 250.213 13.825C249.909 14.4083 249.758 15.085 249.758 15.855V25.445H244.473ZM271.973 25.83C269.523 25.83 267.703 25.235 266.513 24.045C265.323 22.855 264.728 21.105 264.728 18.795V12.215H261.473V8.26H264.728V3.22H270.013V8.26H275.088V12.215H270.013V18.585C270.013 19.565 270.235 20.3 270.678 20.79C271.145 21.28 271.88 21.525 272.883 21.525C273.187 21.525 273.502 21.49 273.828 21.42C274.178 21.35 274.552 21.2567 274.948 21.14L275.718 24.99C275.228 25.2467 274.645 25.445 273.968 25.585C273.292 25.7483 272.627 25.83 271.973 25.83ZM275.729 4.935V1.49012e-06H281.434V4.935H275.729ZM275.939 25.445V8.26H281.224V25.445H275.939Z" fill="white"/>
</svg>
